<?xml version="1.0" encoding="utf-8"?>
<!-- Generator: Adobe Illustrator 24.2.0, SVG Export Plug-In . SVG Version: 6.00 Build 0)  -->
<svg version="1.1" id="Camada_1" xmlns="http://www.w3.org/2000/svg" xmlns:xlink="http://www.w3.org/1999/xlink" x="0px" y="0px"
	 viewBox="0 0 1000 1000" style="enable-background:new 0 0 1000 1000;" xml:space="preserve">
<style type="text/css">
	.st0{fill:#DDFF21;}
	.st1{fill:#F5F5F5;}
	.st2{display:none;}
	.st3{display:inline;}
	.st4{fill:#42008C;}
</style>
<g id="XMLID_3_">
	<g>
		<path class="st0" d="M802.32,208.6c-76.37,91.01-371,442.12-414.66,494.17h-57.95l-74.52,88.79h173.88
			c65.94-78.6,251.99-300.32,315.02-375.44v286.64h-16.29l-83.12-99.06l-57.96,69.08c33.23,39.61,76.38,91.02,99.67,118.77h146.49
			V208.6H802.32z"/>
		<path class="st1" d="M744.35,208.6l-74.52,88.81h-57.95c-50.49,60.16-116.78,139.15-170.06,202.68
			c-49.89-59.45-128.29-152.88-170.07-202.68h-16.29v286.63c29.02-34.6,67.65-80.64,99.41-118.48l57.96,69.08
			c-57.49,68.51-157.82,188.07-215.6,256.94h-30.56V208.6h146.51c31.09,37.07,97.63,116.35,128.66,153.32
			c31.47-37.52,96.72-115.27,128.65-153.32H744.35z"/>
	</g>
</g>
<g id="XMLID_2_" class="st2">
	<g class="st3">
		<g>
			<path class="st0" d="M804.54,206.47c-76.93,91.68-373.72,445.35-417.7,497.78h-58.37l-75.06,89.44h175.15
				c66.42-79.18,253.84-302.52,317.33-378.18v288.74h-16.41l-83.73-99.78l-58.39,69.58c33.48,39.9,76.94,91.69,100.4,119.64h147.57
				V206.47H804.54z"/>
			<path class="st4" d="M746.13,206.47l-75.06,89.46H612.7c-50.86,60.6-117.64,140.17-171.3,204.16
				c-50.25-59.89-129.23-153.99-171.32-204.16h-16.41v288.73c29.23-34.86,68.14-81.23,100.13-119.35l58.39,69.58
				c-57.91,69.01-158.97,189.44-217.18,258.82h-30.79V206.47h147.58c31.32,37.34,98.34,117.2,129.6,154.44
				c31.7-37.79,97.43-116.12,129.59-154.44H746.13z"/>
		</g>
	</g>
</g>
</svg>
